<svg width="24" height="24" xmlns="http://www.w3.org/2000/svg">

 <g>
  <title>background</title>
  <rect fill="none" id="canvas_background" height="402" width="582" y="-1" x="-1"/>
 </g>
 <g>
  <title>Layer 1</title>
  <path id="svg_2" fill="#999999" d="m8.4062,12.699976c-2.8856,1.3 -4.9781,4 -5.3437,7.3c0,1.1 0.8329,2 1.9375,2l14,0c1.105,0 1.938,-0.9 1.938,-2c-0.366,-3.3 -2.459,-6 -5.344,-7.3c-0.649,1.3 -2.011,2.3 -3.594,2.3s-2.9453,-1 -3.5938,-2.3z"/>
  <path id="svg_3" fill="#999999" d="m17,7a5,5 0 1 1 -10,0a5,5 0 1 1 10,0z"/>
  <path id="svg_4" fill="#999999" d="m12.10101,11.909091c-1.277,0 -2.4943,0.269 -3.5938,0.75c-2.8856,1.262 -4.9781,3.997 -5.3437,7.25c0,1.105 0.8329,2 1.9375,2l14,0c1.105,0 1.938,-0.895 1.938,-2c-0.366,-3.253 -2.459,-5.988 -5.344,-7.25c-1.1,-0.481 -2.317,-0.75 -3.594,-0.75z"/>
 </g>
</svg>