<?xml version="1.0" ?><svg data-name="Layer 1" id="Layer_1" viewBox="0 0 100 100" xmlns="http://www.w3.org/2000/svg"><title/><path d="M89.13,28.69H67.76V19.07a4,4,0,0,0-4-4H36.26a4,4,0,0,0-4,4v9.62H10.87A5.89,5.89,0,0,0,5,34.56V89.1A5.89,5.89,0,0,0,10.87,95H89.13A5.89,5.89,0,0,0,95,89.1V34.56A5.89,5.89,0,0,0,89.13,28.69ZM35,19.07a1.23,1.23,0,0,1,1.22-1.22H63.72a1.23,1.23,0,0,1,1.22,1.22v9.62H35ZM10.87,31.5H89.13a3.06,3.06,0,0,1,3.05,3.05v19H59.84V51.48A2.81,2.81,0,0,0,57,48.67H43a2.81,2.81,0,0,0-2.81,2.81v2.11H7.81v-19A3.06,3.06,0,0,1,10.87,31.5ZM57,51.48v7H43v-7Zm32.1,40.67H10.87A3.06,3.06,0,0,1,7.81,89.1V56.41H40.16v2.11A2.81,2.81,0,0,0,43,61.33H57a2.81,2.81,0,0,0,2.81-2.81V56.41H92.19V89.1A3.06,3.06,0,0,1,89.13,92.16Z"/></svg>